<?xml version="1.0" standalone="no"?>
<!DOCTYPE svg PUBLIC "-//W3C//DTD SVG 20010904//EN"
 "http://www.w3.org/TR/2001/REC-SVG-20010904/DTD/svg10.dtd">
<svg version="1.0" xmlns="http://www.w3.org/2000/svg"
 width="615.000000pt" height="615.000000pt" viewBox="0 0 615.000000 615.000000"
 preserveAspectRatio="xMidYMid meet">
<metadata>
Created by potrace 1.11, written by Peter Selinger 2001-2013
</metadata>
<g transform="translate(0.000000,615.000000) scale(0.100000,-0.100000)"
fill="#000000" stroke="none">
<path d="M2975 5666 c-176 -56 -255 -179 -350 -549 -68 -264 -79 -334 -78
-492 1 -238 40 -343 203 -545 164 -203 187 -269 176 -505 -12 -275 -38 -720
-43 -725 -6 -7 -94 44 -223 128 -123 81 -271 219 -327 305 -18 27 -51 106 -74
175 -23 70 -55 153 -72 185 -57 108 -213 233 -465 371 -226 125 -651 327 -934
444 l-97 41 -21 -26 c-19 -24 -19 -27 -4 -45 10 -10 60 -47 113 -82 91 -60
159 -100 531 -310 154 -87 344 -208 355 -226 10 -16 -132 50 -405 188 -258
131 -298 152 -503 261 -74 41 -108 53 -142 53 -62 1 -71 -10 -42 -53 25 -37
46 -52 247 -171 256 -152 595 -378 695 -464 46 -40 -166 73 -550 294 -438 251
-441 253 -500 238 -72 -18 15 -98 320 -296 341 -220 560 -379 616 -446 13 -16
12 -16 -10 -4 -64 33 -226 136 -474 299 -425 278 -484 311 -544 299 -33 -6
-28 -52 9 -87 91 -86 778 -593 998 -737 212 -139 325 -185 511 -209 233 -31
337 -82 657 -328 78 -60 142 -112 142 -116 0 -3 -100 -69 -223 -146 -671 -422
-1082 -739 -1545 -1192 -149 -145 -145 -137 -97 -233 49 -98 131 -176 174
-165 42 11 332 160 456 235 298 180 526 352 1107 837 147 123 269 223 271 223
2 0 1 -150 -1 -333 -6 -450 13 -771 68 -1127 14 -87 24 -128 36 -137 36 -27
206 -29 254 -3 17 9 39 63 54 133 4 15 11 82 16 150 5 67 14 176 20 242 20
241 30 476 31 753 1 155 4 282 6 282 3 0 89 -62 192 -138 523 -389 860 -614
1214 -811 170 -95 390 -201 416 -201 36 0 135 125 175 222 l16 37 -109 98
c-390 355 -821 668 -1486 1077 -132 82 -258 159 -279 173 l-39 25 171 112 c94
61 288 185 431 275 337 214 498 326 941 656 467 347 510 377 660 465 129 76
260 190 260 225 0 10 -19 37 -43 60 -64 65 -125 80 -312 79 -135 -1 -162 -4
-266 -32 -365 -98 -820 -351 -1173 -652 -61 -52 -250 -232 -421 -400 -298
-293 -395 -382 -395 -363 0 6 -12 99 -26 209 -14 109 -28 271 -31 360 -9 265
10 327 162 517 153 192 188 266 222 466 15 87 16 115 5 233 -36 396 -178 753
-350 879 -76 56 -186 74 -277 45z"/>
</g>
</svg>
